<?xml version="1.0" encoding="UTF-8"?>
<svg id="Layer_1" data-name="Layer 1" xmlns="http://www.w3.org/2000/svg" viewBox="0 0 200.09 136">
  <defs>
    <style>
      .cls-1 {
        fill: none;
      }

      .cls-2 {
        fill: #fd7215;
      }

      .cls-3 {
        fill: #229434;
      }

      .cls-4, .cls-5 {
        fill: #006;
      }

      .cls-5 {
        fill-rule: evenodd;
      }
    </style>
  </defs>
  <g>
    <path d="M17.86,133.66v-12.62h4.12c1.37,0,2.4.28,3.09.85.69.57,1.04,1.4,1.04,2.51,0,.59-.17,1.11-.5,1.56-.33.45-.79.8-1.37,1.05.68.19,1.22.55,1.62,1.09.4.53.59,1.17.59,1.91,0,1.13-.37,2.02-1.1,2.67-.73.65-1.77.97-3.11.97h-4.38ZM19.53,126.42h2.51c.73,0,1.31-.18,1.75-.55.44-.36.65-.86.65-1.48,0-.69-.2-1.2-.61-1.52s-1.02-.47-1.85-.47h-2.46v4.02ZM19.53,127.76v4.54h2.75c.77,0,1.38-.2,1.83-.6.45-.4.67-.95.67-1.66,0-1.52-.83-2.28-2.48-2.28h-2.77Z"/>
    <path d="M41.22,133.66h-1.67v-5.83h-6.36v5.83h-1.66v-12.62h1.66v5.42h6.36v-5.42h1.67v12.62Z"/>
    <path d="M53.74,130.36h-5.29l-1.19,3.3h-1.72l4.82-12.62h1.46l4.83,12.62h-1.71l-1.2-3.3ZM48.96,129h4.29l-2.15-5.9-2.14,5.9Z"/>
    <path d="M65.59,128.56h-2.96v5.1h-1.67v-12.62h4.18c1.42,0,2.51.32,3.28.97.77.65,1.15,1.59,1.15,2.83,0,.79-.21,1.47-.64,2.05-.42.58-1.02,1.02-1.77,1.31l2.96,5.36v.1h-1.79l-2.74-5.1ZM62.62,127.2h2.56c.83,0,1.48-.21,1.97-.64.49-.43.73-1,.73-1.72,0-.78-.23-1.38-.7-1.8-.47-.42-1.14-.63-2.01-.63h-2.55v4.79Z"/>
    <path d="M81.46,130.36h-5.29l-1.19,3.3h-1.72l4.82-12.62h1.46l4.83,12.62h-1.71l-1.2-3.3ZM76.68,129h4.29l-2.15-5.9-2.14,5.9Z"/>
    <path d="M97.39,122.4h-4.05v11.25h-1.66v-11.25h-4.05v-1.36h9.76v1.36Z"/>
    <path d="M110.22,136h-1.29v-14.96h1.29v14.96Z"/>
    <path d="M126.53,128.04c-1.43-.41-2.46-.91-3.12-1.51-.65-.6-.97-1.33-.97-2.21,0-.99.4-1.82,1.19-2.47.79-.65,1.83-.97,3.1-.97.87,0,1.64.17,2.32.5s1.2.8,1.58,1.39c.37.59.56,1.23.56,1.93h-1.67c0-.77-.24-1.37-.73-1.8-.49-.44-1.17-.66-2.05-.66-.82,0-1.46.18-1.92.54-.46.36-.69.86-.69,1.51,0,.51.22.95.65,1.31.44.36,1.18.68,2.23.98,1.05.29,1.87.62,2.46.98.59.35,1.03.77,1.32,1.24s.43,1.03.43,1.67c0,1.02-.4,1.84-1.2,2.46-.8.61-1.86.92-3.2.92-.87,0-1.68-.17-2.43-.5s-1.33-.79-1.74-1.36c-.41-.58-.61-1.23-.61-1.97h1.67c0,.76.28,1.36.84,1.81.56.44,1.32.66,2.26.66.88,0,1.55-.18,2.02-.54.47-.36.7-.85.7-1.46s-.22-1.1-.65-1.43c-.43-.34-1.22-.67-2.36-1Z"/>
    <path d="M137.61,128.72v4.94h-1.66v-12.62h4.65c1.38,0,2.46.35,3.25,1.06.78.71,1.17,1.64,1.17,2.8,0,1.22-.38,2.17-1.15,2.83-.76.66-1.86.99-3.29.99h-2.97ZM137.61,127.36h2.99c.89,0,1.57-.21,2.04-.63.47-.42.71-1.03.71-1.82,0-.75-.24-1.35-.71-1.8-.47-.45-1.12-.69-1.95-.7h-3.08v4.96Z"/>
    <path d="M151.53,133.66h-1.66v-12.62h1.66v12.62Z"/>
    <path d="M161.81,128.56h-2.96v5.1h-1.67v-12.62h4.18c1.42,0,2.51.32,3.28.97.77.65,1.15,1.59,1.15,2.83,0,.79-.21,1.47-.64,2.05-.42.58-1.02,1.02-1.77,1.31l2.96,5.36v.1h-1.79l-2.74-5.1ZM158.84,127.2h2.56c.83,0,1.48-.21,1.97-.64.49-.43.73-1,.73-1.72,0-.78-.23-1.38-.7-1.8-.46-.42-1.14-.63-2.01-.63h-2.55v4.79Z"/>
    <path d="M172.5,133.66h-1.66v-12.62h1.66v12.62Z"/>
    <path d="M186.86,122.4h-4.05v11.25h-1.66v-11.25h-4.05v-1.36h9.76v1.36Z"/>
  </g>
  <g>
    <path class="cls-2" d="M162.5,22.95c1.88-.31,3.19.69,5.18.22l-4.92-1.06c-.82-.18-1.88.03-2.66-.06-1.79-.21-3.54-.56-5.31-.96-3.52-.79-6.93-1.29-10.5-1.92l-11.54-2.05c2.55.85,4.97,1.34,7.47,2.01l3.1.82c-2.67-.18-5.02-.91-7.57-1.45l-8.83-1.87-10.08-1.96c-5.75-1.12-11.32-2.05-17.22-2.53-7.77-.63-15.29-.97-23.04-.32-8.24.69-16.11,2.23-23.99,4.79-11.25,3.65-26.14,11.73-34.48,19.84l-7.9,7.69-3.2,2.46c-1.18.9-.8-1.45-3.8,1.23l.65-1.64c-.86-.93-1.68,1.05-1.95.25-.44-1.3-2.82-2.21-1.55-5.04,3.75-8.38,9.72-13.93,16.88-19.51,4.39-3.43,8.89-6.29,13.82-8.89,6.39-3.37,13.04-6.33,20.03-8.19,7.76-2.07,10.37-2.85,18.59-3.76l3.79-.42,6.43-.46c2.74-.2,5.29-.16,8.04-.05,18.21.72,26.86,2.78,44.18,7.11l21.87,5.46c10.29,2.57,20.41,5.1,30.92,6.5,1.59.21,2.82-.08,4.58.33,0,0-.1.12-.36.44,2.66.44,5.07-.23,7.57.16-1.39.17-2.62.36-3.94.37l-14.71.2c.65.33,1.48.46,2.27.45l15.33-.05c1.57,0,3.01-.06,4.44.23-5.29.79-10.38.63-15.64.49l-7.74-.2-1.54-.1c1.08.68,3.26.33,5.28.53,3.3.33,6.45.6,9.62.56l-3.23.51c-1.8.28-3.69.12-5.56.1-3.62-.04-7.02-.42-10.59-.85-5.62-.67-10.97-1.61-16.51-2.85l-10.76-2.42c-.77-.17-1.42-.33-2.14-.16,8.57,2.34,16.49,3.95,25.02,5.61,3.17.62,6.13.9,9.45,1.17-1.69.63-3.43-.22-5.22-.06-1.39.12-2.75.33-4.14.06l-3.91-.74ZM137.42,17.14c-1.87-.67-3.48-1.1-5.42-1.04,1.11.55,4.42,1.27,5.42,1.04ZM182.69,19.75l-5.53-.06c-1.08-.1-2.28-.73-3.39.21l6.25.09c.86.11,1.84.71,2.67-.24Z"/>
    <path class="cls-3" d="M169.82,40.52l3.46.65,1.96.37c-.74.07-1.73,0-2.51-.08-1.43.59-3.75.45-5.41.29l-11.63-1.12c-.54-.05-1.38.32-1.98.18-2.54-.56-4.93-1.09-7.5-1.32-4.68-.42-9.05-1.53-13.65-2.47l-14.56-2.96-13.47-2.38c-12.28-2.17-28.82-1.88-40.81,1.26-5.21,1.36-10.09,2.9-15.01,4.8l-6.54,2.52-8.25,3.62,1.03-1.76-2.4.85-1.02-.46.07-.94c.02-.31-1.16-.15-1.84-.88-1.19-1.28,5.13-4.91,5.88-5.39,8.25-5.32,17.13-9.46,26.77-11.62,9.57-2.14,20.44-3.16,30.18-2.57l4.66.28c6.49.39,12.77,1.39,19.12,2.8l22.33,4.97c13.97,3.11,37.01,8.71,51.06,7.25l6.59-.68c-3.47,1.69-11.3,1.92-15.03,1.77l-4.65-.19,1.48.6c-.89,0-1.88.05-2.8-.05l-5.24-.55-7.31-.79c.99.23,2.13.71,3.1.81l15.41,1.6c1.53.16,3.02-.15,4.42.18l-8.31.16-4.63-.13c-1.24-.03-2.37-.27-3.46.24l9.29.38,4.91.26c-1.42.12-2.79.27-4.15.3l-9.53.18ZM167.36,35.44c-3.31-.58-6.14-1.08-9.25-1.29l6.83,1.25c.88.11,1.72.17,2.42.04Z"/>
  </g>
  <g>
    <path d="M78.28,51.97h13.41l29.44,49.96h.18v-49.96h10.53v63.73h-13.41l-29.44-49.96h-.18v49.96h-10.53v-63.73Z"/>
    <path d="M143,51.97h44.02v9.18h-33.58v17.55h29.98v8.55h-29.98v19.26h34.48v9.18h-44.92v-63.73Z"/>
    <g>
      <rect class="cls-1" x="4.81" y="42.7" width="68.16" height="68.16"/>
      <rect class="cls-1" x="4.81" y="42.7" width="68.25" height="68.25"/>
      <path class="cls-4" d="M40.35,115.71c-18.89,0-34.26-15.37-34.26-34.26s15.37-34.26,34.26-34.26,34.26,15.37,34.26,34.26-15.37,34.26-34.26,34.26ZM40.35,51.18c-16.69,0-30.26,13.58-30.26,30.26s13.58,30.26,30.26,30.26,30.26-13.58,30.26-30.26-13.58-30.26-30.26-30.26Z"/>
      <g>
        <polygon class="cls-5" points="41.99 67.79 41.03 79.27 39.8 79.27 38.71 67.79 40.49 50.16 41.99 67.79"/>
        <circle class="cls-4" cx="40.35" cy="82.03" r="4.45"/>
        <g>
          <g>
            <g>
              <polygon class="cls-5" points="41.99 67.79 41.03 79.27 39.8 79.27 38.71 67.79 40.49 50.16 41.99 67.79"/>
              <polygon class="cls-5" points="38.71 95.09 39.67 83.61 40.9 83.61 41.99 95.09 40.21 112.72 38.71 95.09"/>
            </g>
            <g>
              <polygon class="cls-5" points="54 83.08 42.52 82.13 42.52 80.89 54 79.8 71.63 81.58 54 83.08"/>
              <polygon class="cls-5" points="26.7 79.8 38.18 80.76 38.18 81.99 26.7 83.08 9.07 81.3 26.7 79.8"/>
            </g>
          </g>
          <g>
            <g>
              <polygon class="cls-5" points="51.16 72.95 42.37 80.39 41.5 79.52 48.84 70.63 62.57 59.42 51.16 72.95"/>
              <polygon class="cls-5" points="29.54 89.93 38.34 82.49 39.21 83.36 31.86 92.25 18.13 103.46 29.54 89.93"/>
            </g>
            <g>
              <polygon class="cls-5" points="48.84 92.25 41.4 83.46 42.27 82.59 51.16 89.93 62.37 103.66 48.84 92.25"/>
              <polygon class="cls-5" points="31.86 70.63 39.3 79.43 38.43 80.3 29.54 72.95 18.33 59.23 31.86 70.63"/>
            </g>
          </g>
        </g>
        <g>
          <g>
            <g>
              <polygon class="cls-5" points="53.69 78.13 42.62 81.31 42.18 80.16 52.53 75.06 69.65 70.47 53.69 78.13"/>
              <polygon class="cls-5" points="27.01 84.75 38.08 81.57 38.52 82.72 28.17 87.82 11.06 92.42 27.01 84.75"/>
            </g>
            <g>
              <polygon class="cls-5" points="43.66 94.78 40.48 83.71 41.63 83.27 46.73 93.62 51.32 110.74 43.66 94.78"/>
              <polygon class="cls-5" points="37.04 68.1 40.22 79.17 39.07 79.61 33.97 69.26 29.38 52.15 37.04 68.1"/>
            </g>
          </g>
          <g>
            <g>
              <polygon class="cls-5" points="52.13 88.54 42.05 82.95 42.55 81.83 53.47 85.54 68.82 94.4 52.13 88.54"/>
              <polygon class="cls-5" points="28.58 74.35 38.65 79.93 38.15 81.05 27.23 77.34 11.88 68.49 28.58 74.35"/>
            </g>
            <g>
              <polygon class="cls-5" points="33.26 93.22 38.84 83.14 39.96 83.64 36.25 94.56 27.4 109.92 33.26 93.22"/>
              <polygon class="cls-5" points="47.44 69.67 41.86 79.75 40.74 79.24 44.45 68.32 53.31 52.97 47.44 69.67"/>
            </g>
          </g>
        </g>
      </g>
    </g>
  </g>
</svg>